<mxfile host="app.diagrams.net" agent="Mozilla/5.0 (Windows NT 10.0; Win64; x64) AppleWebKit/537.36 (KHTML, like Gecko) Chrome/134.0.0.0 Safari/537.36" version="26.1.0">
  <diagram name="PÃ¡gina-1" id="00ko7nCf5f7qOehELQm_">
    <mxGraphModel dx="1393" dy="1723" grid="0" gridSize="10" guides="1" tooltips="1" connect="1" arrows="1" fold="1" page="0" pageScale="1" pageWidth="827" pageHeight="1169" background="none" math="0" shadow="0">
      <root>
        <mxCell id="0" />
        <mxCell id="1" parent="0" />
        <mxCell id="m3YO8wlIrfaZdNfNYGgP-53" style="edgeStyle=orthogonalEdgeStyle;rounded=0;orthogonalLoop=1;jettySize=auto;html=1;" edge="1" parent="1" source="b0D_sGYAnOxJrPJl0iUJ-5" target="m3YO8wlIrfaZdNfNYGgP-44">
          <mxGeometry relative="1" as="geometry" />
        </mxCell>
        <mxCell id="b0D_sGYAnOxJrPJl0iUJ-5" value="&lt;i&gt;Usuario&lt;/i&gt;" style="swimlane;fontStyle=1;align=center;verticalAlign=top;childLayout=stackLayout;horizontal=1;startSize=26;horizontalStack=0;resizeParent=1;resizeParentMax=0;resizeLast=0;collapsible=1;marginBottom=0;whiteSpace=wrap;html=1;" parent="1" vertex="1">
          <mxGeometry x="938" y="-526" width="244" height="164" as="geometry" />
        </mxCell>
        <mxCell id="b0D_sGYAnOxJrPJl0iUJ-6" value="- nome:String" style="text;strokeColor=none;fillColor=none;align=left;verticalAlign=top;spacingLeft=4;spacingRight=4;overflow=hidden;rotatable=0;points=[[0,0.5],[1,0.5]];portConstraint=eastwest;whiteSpace=wrap;html=1;" parent="b0D_sGYAnOxJrPJl0iUJ-5" vertex="1">
          <mxGeometry y="26" width="244" height="26" as="geometry" />
        </mxCell>
        <mxCell id="b0D_sGYAnOxJrPJl0iUJ-9" value="- senha:String" style="text;strokeColor=none;fillColor=none;align=left;verticalAlign=top;spacingLeft=4;spacingRight=4;overflow=hidden;rotatable=0;points=[[0,0.5],[1,0.5]];portConstraint=eastwest;whiteSpace=wrap;html=1;" parent="b0D_sGYAnOxJrPJl0iUJ-5" vertex="1">
          <mxGeometry y="52" width="244" height="26" as="geometry" />
        </mxCell>
        <mxCell id="b0D_sGYAnOxJrPJl0iUJ-10" value="- email:String" style="text;strokeColor=none;fillColor=none;align=left;verticalAlign=top;spacingLeft=4;spacingRight=4;overflow=hidden;rotatable=0;points=[[0,0.5],[1,0.5]];portConstraint=eastwest;whiteSpace=wrap;html=1;" parent="b0D_sGYAnOxJrPJl0iUJ-5" vertex="1">
          <mxGeometry y="78" width="244" height="26" as="geometry" />
        </mxCell>
        <mxCell id="b0D_sGYAnOxJrPJl0iUJ-57" value="- perfil: EnumUsuario" style="text;strokeColor=none;fillColor=none;align=left;verticalAlign=top;spacingLeft=4;spacingRight=4;overflow=hidden;rotatable=0;points=[[0,0.5],[1,0.5]];portConstraint=eastwest;whiteSpace=wrap;html=1;" parent="b0D_sGYAnOxJrPJl0iUJ-5" vertex="1">
          <mxGeometry y="104" width="244" height="26" as="geometry" />
        </mxCell>
        <mxCell id="b0D_sGYAnOxJrPJl0iUJ-7" value="" style="line;strokeWidth=1;fillColor=none;align=left;verticalAlign=middle;spacingTop=-1;spacingLeft=3;spacingRight=3;rotatable=0;labelPosition=right;points=[];portConstraint=eastwest;strokeColor=inherit;" parent="b0D_sGYAnOxJrPJl0iUJ-5" vertex="1">
          <mxGeometry y="130" width="244" height="8" as="geometry" />
        </mxCell>
        <mxCell id="b0D_sGYAnOxJrPJl0iUJ-8" value="+ login(): String" style="text;strokeColor=none;fillColor=none;align=left;verticalAlign=top;spacingLeft=4;spacingRight=4;overflow=hidden;rotatable=0;points=[[0,0.5],[1,0.5]];portConstraint=eastwest;whiteSpace=wrap;html=1;" parent="b0D_sGYAnOxJrPJl0iUJ-5" vertex="1">
          <mxGeometry y="138" width="244" height="26" as="geometry" />
        </mxCell>
        <mxCell id="b0D_sGYAnOxJrPJl0iUJ-11" value="" style="endArrow=block;endSize=16;endFill=0;html=1;rounded=0;" parent="1" source="b0D_sGYAnOxJrPJl0iUJ-12" target="b0D_sGYAnOxJrPJl0iUJ-5" edge="1">
          <mxGeometry x="0.3041" y="-98" width="160" relative="1" as="geometry">
            <mxPoint x="1057" y="-274" as="sourcePoint" />
            <mxPoint x="1198" y="-236" as="targetPoint" />
            <Array as="points">
              <mxPoint x="1060" y="-335" />
            </Array>
            <mxPoint x="-29" y="70" as="offset" />
          </mxGeometry>
        </mxCell>
        <mxCell id="b0D_sGYAnOxJrPJl0iUJ-12" value="Aluno" style="swimlane;fontStyle=1;align=center;verticalAlign=top;childLayout=stackLayout;horizontal=1;startSize=26;horizontalStack=0;resizeParent=1;resizeParentMax=0;resizeLast=0;collapsible=1;marginBottom=0;whiteSpace=wrap;html=1;" parent="1" vertex="1">
          <mxGeometry x="770" y="-279" width="290" height="112" as="geometry" />
        </mxCell>
        <mxCell id="b0D_sGYAnOxJrPJl0iUJ-13" value="- matricula: long" style="text;strokeColor=none;fillColor=none;align=left;verticalAlign=top;spacingLeft=4;spacingRight=4;overflow=hidden;rotatable=0;points=[[0,0.5],[1,0.5]];portConstraint=eastwest;whiteSpace=wrap;html=1;" parent="b0D_sGYAnOxJrPJl0iUJ-12" vertex="1">
          <mxGeometry y="26" width="290" height="26" as="geometry" />
        </mxCell>
        <mxCell id="b0D_sGYAnOxJrPJl0iUJ-14" value="" style="line;strokeWidth=1;fillColor=none;align=left;verticalAlign=middle;spacingTop=-1;spacingLeft=3;spacingRight=3;rotatable=0;labelPosition=right;points=[];portConstraint=eastwest;strokeColor=inherit;" parent="b0D_sGYAnOxJrPJl0iUJ-12" vertex="1">
          <mxGeometry y="52" width="290" height="8" as="geometry" />
        </mxCell>
        <mxCell id="b0D_sGYAnOxJrPJl0iUJ-15" value="+ matricularTurma(matricula: long, turma: long)" style="text;strokeColor=none;fillColor=none;align=left;verticalAlign=top;spacingLeft=4;spacingRight=4;overflow=hidden;rotatable=0;points=[[0,0.5],[1,0.5]];portConstraint=eastwest;whiteSpace=wrap;html=1;" parent="b0D_sGYAnOxJrPJl0iUJ-12" vertex="1">
          <mxGeometry y="60" width="290" height="26" as="geometry" />
        </mxCell>
        <mxCell id="m3YO8wlIrfaZdNfNYGgP-1" value="+ cancelarMatricula(matricula: long, turma: long)" style="text;strokeColor=none;fillColor=none;align=left;verticalAlign=top;spacingLeft=4;spacingRight=4;overflow=hidden;rotatable=0;points=[[0,0.5],[1,0.5]];portConstraint=eastwest;whiteSpace=wrap;html=1;" vertex="1" parent="b0D_sGYAnOxJrPJl0iUJ-12">
          <mxGeometry y="86" width="290" height="26" as="geometry" />
        </mxCell>
        <mxCell id="b0D_sGYAnOxJrPJl0iUJ-16" value="Professor" style="swimlane;fontStyle=1;align=center;verticalAlign=top;childLayout=stackLayout;horizontal=1;startSize=26;horizontalStack=0;resizeParent=1;resizeParentMax=0;resizeLast=0;collapsible=1;marginBottom=0;whiteSpace=wrap;html=1;" parent="1" vertex="1">
          <mxGeometry x="1110" y="-228" width="290" height="34" as="geometry" />
        </mxCell>
        <mxCell id="b0D_sGYAnOxJrPJl0iUJ-18" value="" style="line;strokeWidth=1;fillColor=none;align=left;verticalAlign=middle;spacingTop=-1;spacingLeft=3;spacingRight=3;rotatable=0;labelPosition=right;points=[];portConstraint=eastwest;strokeColor=inherit;" parent="b0D_sGYAnOxJrPJl0iUJ-16" vertex="1">
          <mxGeometry y="26" width="290" height="8" as="geometry" />
        </mxCell>
        <mxCell id="b0D_sGYAnOxJrPJl0iUJ-20" value="" style="endArrow=block;endSize=16;endFill=0;html=1;rounded=0;" parent="1" source="b0D_sGYAnOxJrPJl0iUJ-16" target="b0D_sGYAnOxJrPJl0iUJ-5" edge="1">
          <mxGeometry x="0.3041" y="-98" width="160" relative="1" as="geometry">
            <mxPoint x="1202.9859154929577" y="-279" as="sourcePoint" />
            <mxPoint x="1070" y="-378" as="targetPoint" />
            <Array as="points">
              <mxPoint x="1060" y="-333" />
            </Array>
            <mxPoint x="-29" y="70" as="offset" />
          </mxGeometry>
        </mxCell>
        <mxCell id="b0D_sGYAnOxJrPJl0iUJ-21" value="Secretaria" style="swimlane;fontStyle=1;align=center;verticalAlign=top;childLayout=stackLayout;horizontal=1;startSize=26;horizontalStack=0;resizeParent=1;resizeParentMax=0;resizeLast=0;collapsible=1;marginBottom=0;whiteSpace=wrap;html=1;" parent="1" vertex="1">
          <mxGeometry x="423" y="-282" width="290" height="34" as="geometry" />
        </mxCell>
        <mxCell id="b0D_sGYAnOxJrPJl0iUJ-22" value="" style="line;strokeWidth=1;fillColor=none;align=left;verticalAlign=middle;spacingTop=-1;spacingLeft=3;spacingRight=3;rotatable=0;labelPosition=right;points=[];portConstraint=eastwest;strokeColor=inherit;" parent="b0D_sGYAnOxJrPJl0iUJ-21" vertex="1">
          <mxGeometry y="26" width="290" height="8" as="geometry" />
        </mxCell>
        <mxCell id="b0D_sGYAnOxJrPJl0iUJ-23" value="" style="endArrow=block;endSize=16;endFill=0;html=1;rounded=0;" parent="1" source="b0D_sGYAnOxJrPJl0iUJ-21" target="b0D_sGYAnOxJrPJl0iUJ-5" edge="1">
          <mxGeometry x="0.3041" y="-98" width="160" relative="1" as="geometry">
            <mxPoint x="988" y="-269" as="sourcePoint" />
            <mxPoint x="1070" y="-378" as="targetPoint" />
            <Array as="points">
              <mxPoint x="1060" y="-333" />
            </Array>
            <mxPoint x="-29" y="70" as="offset" />
          </mxGeometry>
        </mxCell>
        <mxCell id="m3YO8wlIrfaZdNfNYGgP-35" style="edgeStyle=orthogonalEdgeStyle;rounded=0;orthogonalLoop=1;jettySize=auto;html=1;entryX=1;entryY=0.5;entryDx=0;entryDy=0;" edge="1" parent="1" source="b0D_sGYAnOxJrPJl0iUJ-24" target="m3YO8wlIrfaZdNfNYGgP-21">
          <mxGeometry relative="1" as="geometry" />
        </mxCell>
        <mxCell id="m3YO8wlIrfaZdNfNYGgP-39" style="edgeStyle=orthogonalEdgeStyle;rounded=0;orthogonalLoop=1;jettySize=auto;html=1;entryX=1;entryY=0.5;entryDx=0;entryDy=0;" edge="1" parent="1" source="b0D_sGYAnOxJrPJl0iUJ-24" target="R05KZeigGBKfCSI8nt8t-12">
          <mxGeometry relative="1" as="geometry" />
        </mxCell>
        <mxCell id="m3YO8wlIrfaZdNfNYGgP-58" style="edgeStyle=orthogonalEdgeStyle;rounded=0;orthogonalLoop=1;jettySize=auto;html=1;entryX=1;entryY=0.5;entryDx=0;entryDy=0;" edge="1" parent="1" source="b0D_sGYAnOxJrPJl0iUJ-24" target="b0D_sGYAnOxJrPJl0iUJ-16">
          <mxGeometry relative="1" as="geometry">
            <mxPoint x="2148" y="-217" as="targetPoint" />
            <Array as="points">
              <mxPoint x="2136" y="40" />
              <mxPoint x="2136" y="-211" />
            </Array>
          </mxGeometry>
        </mxCell>
        <mxCell id="b0D_sGYAnOxJrPJl0iUJ-24" value="Turma" style="swimlane;fontStyle=1;align=center;verticalAlign=top;childLayout=stackLayout;horizontal=1;startSize=26;horizontalStack=0;resizeParent=1;resizeParentMax=0;resizeLast=0;collapsible=1;marginBottom=0;whiteSpace=wrap;html=1;" parent="1" vertex="1">
          <mxGeometry x="1806" y="-42" width="290" height="164" as="geometry" />
        </mxCell>
        <mxCell id="b0D_sGYAnOxJrPJl0iUJ-25" value="- disciplina: Disciplina" style="text;strokeColor=none;fillColor=none;align=left;verticalAlign=top;spacingLeft=4;spacingRight=4;overflow=hidden;rotatable=0;points=[[0,0.5],[1,0.5]];portConstraint=eastwest;whiteSpace=wrap;html=1;" parent="b0D_sGYAnOxJrPJl0iUJ-24" vertex="1">
          <mxGeometry y="26" width="290" height="26" as="geometry" />
        </mxCell>
        <mxCell id="b0D_sGYAnOxJrPJl0iUJ-30" value="- professor: Professor&lt;div&gt;&lt;br&gt;&lt;/div&gt;" style="text;strokeColor=none;fillColor=none;align=left;verticalAlign=top;spacingLeft=4;spacingRight=4;overflow=hidden;rotatable=0;points=[[0,0.5],[1,0.5]];portConstraint=eastwest;whiteSpace=wrap;html=1;" parent="b0D_sGYAnOxJrPJl0iUJ-24" vertex="1">
          <mxGeometry y="52" width="290" height="26" as="geometry" />
        </mxCell>
        <mxCell id="R05KZeigGBKfCSI8nt8t-5" value="- horario: LocalTime" style="text;strokeColor=none;fillColor=none;align=left;verticalAlign=top;spacingLeft=4;spacingRight=4;overflow=hidden;rotatable=0;points=[[0,0.5],[1,0.5]];portConstraint=eastwest;whiteSpace=wrap;html=1;" parent="b0D_sGYAnOxJrPJl0iUJ-24" vertex="1">
          <mxGeometry y="78" width="290" height="26" as="geometry" />
        </mxCell>
        <mxCell id="m3YO8wlIrfaZdNfNYGgP-32" value="- semestre: Semestre" style="text;strokeColor=none;fillColor=none;align=left;verticalAlign=top;spacingLeft=4;spacingRight=4;overflow=hidden;rotatable=0;points=[[0,0.5],[1,0.5]];portConstraint=eastwest;whiteSpace=wrap;html=1;" vertex="1" parent="b0D_sGYAnOxJrPJl0iUJ-24">
          <mxGeometry y="104" width="290" height="26" as="geometry" />
        </mxCell>
        <mxCell id="b0D_sGYAnOxJrPJl0iUJ-41" value="- id: long" style="text;strokeColor=none;fillColor=none;align=left;verticalAlign=top;spacingLeft=4;spacingRight=4;overflow=hidden;rotatable=0;points=[[0,0.5],[1,0.5]];portConstraint=eastwest;whiteSpace=wrap;html=1;" parent="b0D_sGYAnOxJrPJl0iUJ-24" vertex="1">
          <mxGeometry y="130" width="290" height="26" as="geometry" />
        </mxCell>
        <mxCell id="b0D_sGYAnOxJrPJl0iUJ-26" value="" style="line;strokeWidth=1;fillColor=none;align=left;verticalAlign=middle;spacingTop=-1;spacingLeft=3;spacingRight=3;rotatable=0;labelPosition=right;points=[];portConstraint=eastwest;strokeColor=inherit;" parent="b0D_sGYAnOxJrPJl0iUJ-24" vertex="1">
          <mxGeometry y="156" width="290" height="8" as="geometry" />
        </mxCell>
        <mxCell id="m3YO8wlIrfaZdNfNYGgP-43" style="edgeStyle=orthogonalEdgeStyle;rounded=0;orthogonalLoop=1;jettySize=auto;html=1;exitX=0.5;exitY=1;exitDx=0;exitDy=0;" edge="1" parent="1" source="b0D_sGYAnOxJrPJl0iUJ-32" target="R05KZeigGBKfCSI8nt8t-7">
          <mxGeometry relative="1" as="geometry">
            <mxPoint x="1565" y="-251" as="targetPoint" />
            <Array as="points">
              <mxPoint x="1572" y="407" />
              <mxPoint x="2181" y="407" />
              <mxPoint x="2181" y="-321" />
            </Array>
          </mxGeometry>
        </mxCell>
        <mxCell id="b0D_sGYAnOxJrPJl0iUJ-32" value="Disciplina" style="swimlane;fontStyle=1;align=center;verticalAlign=top;childLayout=stackLayout;horizontal=1;startSize=26;horizontalStack=0;resizeParent=1;resizeParentMax=0;resizeLast=0;collapsible=1;marginBottom=0;whiteSpace=wrap;html=1;" parent="1" vertex="1">
          <mxGeometry x="1427" y="151" width="290" height="216" as="geometry" />
        </mxCell>
        <mxCell id="b0D_sGYAnOxJrPJl0iUJ-37" value="- nome: String" style="text;strokeColor=none;fillColor=none;align=left;verticalAlign=top;spacingLeft=4;spacingRight=4;overflow=hidden;rotatable=0;points=[[0,0.5],[1,0.5]];portConstraint=eastwest;whiteSpace=wrap;html=1;" parent="b0D_sGYAnOxJrPJl0iUJ-32" vertex="1">
          <mxGeometry y="26" width="290" height="26" as="geometry" />
        </mxCell>
        <mxCell id="b0D_sGYAnOxJrPJl0iUJ-39" value="- descricao: String" style="text;strokeColor=none;fillColor=none;align=left;verticalAlign=top;spacingLeft=4;spacingRight=4;overflow=hidden;rotatable=0;points=[[0,0.5],[1,0.5]];portConstraint=eastwest;whiteSpace=wrap;html=1;" parent="b0D_sGYAnOxJrPJl0iUJ-32" vertex="1">
          <mxGeometry y="52" width="290" height="26" as="geometry" />
        </mxCell>
        <mxCell id="R05KZeigGBKfCSI8nt8t-12" value="- curso: Curso" style="text;strokeColor=none;fillColor=none;align=left;verticalAlign=top;spacingLeft=4;spacingRight=4;overflow=hidden;rotatable=0;points=[[0,0.5],[1,0.5]];portConstraint=eastwest;whiteSpace=wrap;html=1;" parent="b0D_sGYAnOxJrPJl0iUJ-32" vertex="1">
          <mxGeometry y="78" width="290" height="26" as="geometry" />
        </mxCell>
        <mxCell id="b0D_sGYAnOxJrPJl0iUJ-47" value="- ativa: boolean" style="text;strokeColor=none;fillColor=none;align=left;verticalAlign=top;spacingLeft=4;spacingRight=4;overflow=hidden;rotatable=0;points=[[0,0.5],[1,0.5]];portConstraint=eastwest;whiteSpace=wrap;html=1;" parent="b0D_sGYAnOxJrPJl0iUJ-32" vertex="1">
          <mxGeometry y="104" width="290" height="26" as="geometry" />
        </mxCell>
        <mxCell id="m3YO8wlIrfaZdNfNYGgP-57" value="- optativa: boolean" style="text;strokeColor=none;fillColor=none;align=left;verticalAlign=top;spacingLeft=4;spacingRight=4;overflow=hidden;rotatable=0;points=[[0,0.5],[1,0.5]];portConstraint=eastwest;whiteSpace=wrap;html=1;" vertex="1" parent="b0D_sGYAnOxJrPJl0iUJ-32">
          <mxGeometry y="130" width="290" height="26" as="geometry" />
        </mxCell>
        <mxCell id="m3YO8wlIrfaZdNfNYGgP-56" value="- periodo: int" style="text;strokeColor=none;fillColor=none;align=left;verticalAlign=top;spacingLeft=4;spacingRight=4;overflow=hidden;rotatable=0;points=[[0,0.5],[1,0.5]];portConstraint=eastwest;whiteSpace=wrap;html=1;" vertex="1" parent="b0D_sGYAnOxJrPJl0iUJ-32">
          <mxGeometry y="156" width="290" height="26" as="geometry" />
        </mxCell>
        <mxCell id="b0D_sGYAnOxJrPJl0iUJ-40" value="- id: long" style="text;strokeColor=none;fillColor=none;align=left;verticalAlign=top;spacingLeft=4;spacingRight=4;overflow=hidden;rotatable=0;points=[[0,0.5],[1,0.5]];portConstraint=eastwest;whiteSpace=wrap;html=1;" parent="b0D_sGYAnOxJrPJl0iUJ-32" vertex="1">
          <mxGeometry y="182" width="290" height="26" as="geometry" />
        </mxCell>
        <mxCell id="b0D_sGYAnOxJrPJl0iUJ-38" value="" style="line;strokeWidth=1;fillColor=none;align=left;verticalAlign=middle;spacingTop=-1;spacingLeft=3;spacingRight=3;rotatable=0;labelPosition=right;points=[];portConstraint=eastwest;strokeColor=inherit;" parent="b0D_sGYAnOxJrPJl0iUJ-32" vertex="1">
          <mxGeometry y="208" width="290" height="8" as="geometry" />
        </mxCell>
        <mxCell id="m3YO8wlIrfaZdNfNYGgP-36" style="edgeStyle=orthogonalEdgeStyle;rounded=0;orthogonalLoop=1;jettySize=auto;html=1;entryX=0;entryY=0.5;entryDx=0;entryDy=0;" edge="1" parent="1" source="b0D_sGYAnOxJrPJl0iUJ-42" target="m3YO8wlIrfaZdNfNYGgP-21">
          <mxGeometry relative="1" as="geometry" />
        </mxCell>
        <mxCell id="m3YO8wlIrfaZdNfNYGgP-55" style="edgeStyle=orthogonalEdgeStyle;rounded=0;orthogonalLoop=1;jettySize=auto;html=1;" edge="1" parent="1" source="b0D_sGYAnOxJrPJl0iUJ-42" target="b0D_sGYAnOxJrPJl0iUJ-12">
          <mxGeometry relative="1" as="geometry">
            <Array as="points">
              <mxPoint x="915" y="59" />
            </Array>
          </mxGeometry>
        </mxCell>
        <mxCell id="b0D_sGYAnOxJrPJl0iUJ-42" value="Matricula" style="swimlane;fontStyle=1;align=center;verticalAlign=top;childLayout=stackLayout;horizontal=1;startSize=26;horizontalStack=0;resizeParent=1;resizeParentMax=0;resizeLast=0;collapsible=1;marginBottom=0;whiteSpace=wrap;html=1;" parent="1" vertex="1">
          <mxGeometry x="1038" y="-21" width="290" height="138" as="geometry" />
        </mxCell>
        <mxCell id="b0D_sGYAnOxJrPJl0iUJ-44" value="- numeroMatricula: Long" style="text;strokeColor=none;fillColor=none;align=left;verticalAlign=top;spacingLeft=4;spacingRight=4;overflow=hidden;rotatable=0;points=[[0,0.5],[1,0.5]];portConstraint=eastwest;whiteSpace=wrap;html=1;" parent="b0D_sGYAnOxJrPJl0iUJ-42" vertex="1">
          <mxGeometry y="26" width="290" height="26" as="geometry" />
        </mxCell>
        <mxCell id="m3YO8wlIrfaZdNfNYGgP-31" value="- semestre: Semestre" style="text;strokeColor=none;fillColor=none;align=left;verticalAlign=top;spacingLeft=4;spacingRight=4;overflow=hidden;rotatable=0;points=[[0,0.5],[1,0.5]];portConstraint=eastwest;whiteSpace=wrap;html=1;" vertex="1" parent="b0D_sGYAnOxJrPJl0iUJ-42">
          <mxGeometry y="52" width="290" height="26" as="geometry" />
        </mxCell>
        <mxCell id="m3YO8wlIrfaZdNfNYGgP-6" value="- valor: Double" style="text;strokeColor=none;fillColor=none;align=left;verticalAlign=top;spacingLeft=4;spacingRight=4;overflow=hidden;rotatable=0;points=[[0,0.5],[1,0.5]];portConstraint=eastwest;whiteSpace=wrap;html=1;" vertex="1" parent="b0D_sGYAnOxJrPJl0iUJ-42">
          <mxGeometry y="78" width="290" height="26" as="geometry" />
        </mxCell>
        <mxCell id="m3YO8wlIrfaZdNfNYGgP-54" value="- aluno: Aluno" style="text;strokeColor=none;fillColor=none;align=left;verticalAlign=top;spacingLeft=4;spacingRight=4;overflow=hidden;rotatable=0;points=[[0,0.5],[1,0.5]];portConstraint=eastwest;whiteSpace=wrap;html=1;" vertex="1" parent="b0D_sGYAnOxJrPJl0iUJ-42">
          <mxGeometry y="104" width="290" height="26" as="geometry" />
        </mxCell>
        <mxCell id="b0D_sGYAnOxJrPJl0iUJ-46" value="" style="line;strokeWidth=1;fillColor=none;align=left;verticalAlign=middle;spacingTop=-1;spacingLeft=3;spacingRight=3;rotatable=0;labelPosition=right;points=[];portConstraint=eastwest;strokeColor=inherit;" parent="b0D_sGYAnOxJrPJl0iUJ-42" vertex="1">
          <mxGeometry y="130" width="290" height="8" as="geometry" />
        </mxCell>
        <mxCell id="R05KZeigGBKfCSI8nt8t-1" value="Turma_Matricula" style="swimlane;fontStyle=1;align=center;verticalAlign=top;childLayout=stackLayout;horizontal=1;startSize=26;horizontalStack=0;resizeParent=1;resizeParentMax=0;resizeLast=0;collapsible=1;marginBottom=0;whiteSpace=wrap;html=1;" parent="1" vertex="1">
          <mxGeometry x="1427" y="5" width="290" height="86" as="geometry" />
        </mxCell>
        <mxCell id="R05KZeigGBKfCSI8nt8t-2" value="- turma: Turma" style="text;strokeColor=none;fillColor=none;align=left;verticalAlign=top;spacingLeft=4;spacingRight=4;overflow=hidden;rotatable=0;points=[[0,0.5],[1,0.5]];portConstraint=eastwest;whiteSpace=wrap;html=1;" parent="R05KZeigGBKfCSI8nt8t-1" vertex="1">
          <mxGeometry y="26" width="290" height="26" as="geometry" />
        </mxCell>
        <mxCell id="R05KZeigGBKfCSI8nt8t-3" value="- matricula: Matricula" style="text;strokeColor=none;fillColor=none;align=left;verticalAlign=top;spacingLeft=4;spacingRight=4;overflow=hidden;rotatable=0;points=[[0,0.5],[1,0.5]];portConstraint=eastwest;whiteSpace=wrap;html=1;" parent="R05KZeigGBKfCSI8nt8t-1" vertex="1">
          <mxGeometry y="52" width="290" height="26" as="geometry" />
        </mxCell>
        <mxCell id="R05KZeigGBKfCSI8nt8t-4" value="" style="line;strokeWidth=1;fillColor=none;align=left;verticalAlign=middle;spacingTop=-1;spacingLeft=3;spacingRight=3;rotatable=0;labelPosition=right;points=[];portConstraint=eastwest;strokeColor=inherit;" parent="R05KZeigGBKfCSI8nt8t-1" vertex="1">
          <mxGeometry y="78" width="290" height="8" as="geometry" />
        </mxCell>
        <mxCell id="R05KZeigGBKfCSI8nt8t-7" value="&lt;div&gt;Curso&lt;/div&gt;" style="swimlane;fontStyle=1;align=center;verticalAlign=top;childLayout=stackLayout;horizontal=1;startSize=26;horizontalStack=0;resizeParent=1;resizeParentMax=0;resizeLast=0;collapsible=1;marginBottom=0;whiteSpace=wrap;html=1;" parent="1" vertex="1">
          <mxGeometry x="1504" y="-390" width="122" height="138" as="geometry" />
        </mxCell>
        <mxCell id="R05KZeigGBKfCSI8nt8t-10" value="- nome: String" style="text;strokeColor=none;fillColor=none;align=left;verticalAlign=top;spacingLeft=4;spacingRight=4;overflow=hidden;rotatable=0;points=[[0,0.5],[1,0.5]];portConstraint=eastwest;whiteSpace=wrap;html=1;" parent="R05KZeigGBKfCSI8nt8t-7" vertex="1">
          <mxGeometry y="26" width="122" height="26" as="geometry" />
        </mxCell>
        <mxCell id="m3YO8wlIrfaZdNfNYGgP-2" value="- descricao: String" style="text;strokeColor=none;fillColor=none;align=left;verticalAlign=top;spacingLeft=4;spacingRight=4;overflow=hidden;rotatable=0;points=[[0,0.5],[1,0.5]];portConstraint=eastwest;whiteSpace=wrap;html=1;" vertex="1" parent="R05KZeigGBKfCSI8nt8t-7">
          <mxGeometry y="52" width="122" height="26" as="geometry" />
        </mxCell>
        <mxCell id="R05KZeigGBKfCSI8nt8t-11" value="- creditos: int" style="text;strokeColor=none;fillColor=none;align=left;verticalAlign=top;spacingLeft=4;spacingRight=4;overflow=hidden;rotatable=0;points=[[0,0.5],[1,0.5]];portConstraint=eastwest;whiteSpace=wrap;html=1;" parent="R05KZeigGBKfCSI8nt8t-7" vertex="1">
          <mxGeometry y="78" width="122" height="26" as="geometry" />
        </mxCell>
        <mxCell id="m3YO8wlIrfaZdNfNYGgP-3" value="- instituicao:String" style="text;strokeColor=none;fillColor=none;align=left;verticalAlign=top;spacingLeft=4;spacingRight=4;overflow=hidden;rotatable=0;points=[[0,0.5],[1,0.5]];portConstraint=eastwest;whiteSpace=wrap;html=1;" vertex="1" parent="R05KZeigGBKfCSI8nt8t-7">
          <mxGeometry y="104" width="122" height="26" as="geometry" />
        </mxCell>
        <mxCell id="R05KZeigGBKfCSI8nt8t-8" value="" style="line;strokeWidth=1;fillColor=none;align=left;verticalAlign=middle;spacingTop=-1;spacingLeft=3;spacingRight=3;rotatable=0;labelPosition=right;points=[];portConstraint=eastwest;strokeColor=inherit;" parent="R05KZeigGBKfCSI8nt8t-7" vertex="1">
          <mxGeometry y="130" width="122" height="8" as="geometry" />
        </mxCell>
        <mxCell id="m3YO8wlIrfaZdNfNYGgP-14" value="Semestre" style="swimlane;fontStyle=1;align=center;verticalAlign=top;childLayout=stackLayout;horizontal=1;startSize=26;horizontalStack=0;resizeParent=1;resizeParentMax=0;resizeLast=0;collapsible=1;marginBottom=0;whiteSpace=wrap;html=1;" vertex="1" parent="1">
          <mxGeometry x="1420" y="-167" width="290" height="112" as="geometry" />
        </mxCell>
        <mxCell id="m3YO8wlIrfaZdNfNYGgP-21" value="- periodoInicio: LocalDate" style="text;strokeColor=none;fillColor=none;align=left;verticalAlign=top;spacingLeft=4;spacingRight=4;overflow=hidden;rotatable=0;points=[[0,0.5],[1,0.5]];portConstraint=eastwest;whiteSpace=wrap;html=1;" vertex="1" parent="m3YO8wlIrfaZdNfNYGgP-14">
          <mxGeometry y="26" width="290" height="26" as="geometry" />
        </mxCell>
        <mxCell id="m3YO8wlIrfaZdNfNYGgP-22" value="- periodoFim: LocalDate" style="text;strokeColor=none;fillColor=none;align=left;verticalAlign=top;spacingLeft=4;spacingRight=4;overflow=hidden;rotatable=0;points=[[0,0.5],[1,0.5]];portConstraint=eastwest;whiteSpace=wrap;html=1;" vertex="1" parent="m3YO8wlIrfaZdNfNYGgP-14">
          <mxGeometry y="52" width="290" height="26" as="geometry" />
        </mxCell>
        <mxCell id="m3YO8wlIrfaZdNfNYGgP-19" value="- curso: Curso" style="text;strokeColor=none;fillColor=none;align=left;verticalAlign=top;spacingLeft=4;spacingRight=4;overflow=hidden;rotatable=0;points=[[0,0.5],[1,0.5]];portConstraint=eastwest;whiteSpace=wrap;html=1;" vertex="1" parent="m3YO8wlIrfaZdNfNYGgP-14">
          <mxGeometry y="78" width="290" height="26" as="geometry" />
        </mxCell>
        <mxCell id="m3YO8wlIrfaZdNfNYGgP-20" value="" style="line;strokeWidth=1;fillColor=none;align=left;verticalAlign=middle;spacingTop=-1;spacingLeft=3;spacingRight=3;rotatable=0;labelPosition=right;points=[];portConstraint=eastwest;strokeColor=inherit;" vertex="1" parent="m3YO8wlIrfaZdNfNYGgP-14">
          <mxGeometry y="104" width="290" height="8" as="geometry" />
        </mxCell>
        <mxCell id="m3YO8wlIrfaZdNfNYGgP-34" value="" style="endArrow=diamondThin;endFill=1;endSize=24;html=1;rounded=0;" edge="1" parent="1" source="m3YO8wlIrfaZdNfNYGgP-14" target="R05KZeigGBKfCSI8nt8t-7">
          <mxGeometry width="160" relative="1" as="geometry">
            <mxPoint x="1510" y="-142" as="sourcePoint" />
            <mxPoint x="1670" y="-142" as="targetPoint" />
          </mxGeometry>
        </mxCell>
        <mxCell id="m3YO8wlIrfaZdNfNYGgP-37" value="" style="endArrow=diamondThin;endFill=1;endSize=24;html=1;rounded=0;" edge="1" parent="1" source="R05KZeigGBKfCSI8nt8t-1" target="b0D_sGYAnOxJrPJl0iUJ-42">
          <mxGeometry width="160" relative="1" as="geometry">
            <mxPoint x="1575" y="-157" as="sourcePoint" />
            <mxPoint x="1575" y="-242" as="targetPoint" />
          </mxGeometry>
        </mxCell>
        <mxCell id="m3YO8wlIrfaZdNfNYGgP-38" value="" style="endArrow=diamondThin;endFill=1;endSize=24;html=1;rounded=0;" edge="1" parent="1" target="R05KZeigGBKfCSI8nt8t-5">
          <mxGeometry width="160" relative="1" as="geometry">
            <mxPoint x="1719" y="52" as="sourcePoint" />
            <mxPoint x="1338" y="59" as="targetPoint" />
          </mxGeometry>
        </mxCell>
        <mxCell id="m3YO8wlIrfaZdNfNYGgP-44" value="&amp;lt;Enum&amp;gt;&lt;br&gt;EnumUsuario" style="swimlane;fontStyle=1;align=center;verticalAlign=top;childLayout=stackLayout;horizontal=1;startSize=34;horizontalStack=0;resizeParent=1;resizeParentMax=0;resizeLast=0;collapsible=1;marginBottom=0;whiteSpace=wrap;html=1;" vertex="1" parent="1">
          <mxGeometry x="582" y="-504" width="290" height="120" as="geometry" />
        </mxCell>
        <mxCell id="m3YO8wlIrfaZdNfNYGgP-46" value="- PROFESSOR" style="text;strokeColor=none;fillColor=none;align=left;verticalAlign=top;spacingLeft=4;spacingRight=4;overflow=hidden;rotatable=0;points=[[0,0.5],[1,0.5]];portConstraint=eastwest;whiteSpace=wrap;html=1;" vertex="1" parent="m3YO8wlIrfaZdNfNYGgP-44">
          <mxGeometry y="34" width="290" height="26" as="geometry" />
        </mxCell>
        <mxCell id="m3YO8wlIrfaZdNfNYGgP-47" value="- ALUNO" style="text;strokeColor=none;fillColor=none;align=left;verticalAlign=top;spacingLeft=4;spacingRight=4;overflow=hidden;rotatable=0;points=[[0,0.5],[1,0.5]];portConstraint=eastwest;whiteSpace=wrap;html=1;" vertex="1" parent="m3YO8wlIrfaZdNfNYGgP-44">
          <mxGeometry y="60" width="290" height="26" as="geometry" />
        </mxCell>
        <mxCell id="m3YO8wlIrfaZdNfNYGgP-52" value="- SECRETARIA" style="text;strokeColor=none;fillColor=none;align=left;verticalAlign=top;spacingLeft=4;spacingRight=4;overflow=hidden;rotatable=0;points=[[0,0.5],[1,0.5]];portConstraint=eastwest;whiteSpace=wrap;html=1;" vertex="1" parent="m3YO8wlIrfaZdNfNYGgP-44">
          <mxGeometry y="86" width="290" height="26" as="geometry" />
        </mxCell>
        <mxCell id="m3YO8wlIrfaZdNfNYGgP-45" value="" style="line;strokeWidth=1;fillColor=none;align=left;verticalAlign=middle;spacingTop=-1;spacingLeft=3;spacingRight=3;rotatable=0;labelPosition=right;points=[];portConstraint=eastwest;strokeColor=inherit;" vertex="1" parent="m3YO8wlIrfaZdNfNYGgP-44">
          <mxGeometry y="112" width="290" height="8" as="geometry" />
        </mxCell>
      </root>
    </mxGraphModel>
  </diagram>
</mxfile>
